<svg width="30" height="30" viewBox="0 0 30 30" fill="none" xmlns="http://www.w3.org/2000/svg">
<path d="M14.2104 0.00436588C11.6738 0.033432 6.22031 0.429106 3.17006 3.08537C0.901138 5.21938 0.108942 8.37446 0.0160912 12.2759C-0.0609553 16.1632 -0.153806 23.4635 7.25945 25.4513V28.4788C7.25945 28.4788 7.21302 29.6902 8.05658 29.9387C9.09572 30.2509 9.6874 29.3189 10.6752 28.3175L12.5174 26.3401C17.5896 26.7405 21.4745 25.8179 21.922 25.681C22.9512 25.3687 28.7485 24.6655 29.6958 17.3643C30.6678 9.82402 29.2226 5.07312 26.6139 2.9241H26.5981C25.8109 2.23589 22.647 0.0474962 15.5785 0.0231182C15.5785 0.0231182 15.054 -0.010636 14.2104 0.00342826V0.00436588ZM14.2973 2.12432C15.0174 2.11963 15.455 2.14869 15.455 2.14869C21.438 2.16369 24.2936 3.87297 24.9673 4.44866C27.1641 6.23576 28.2961 10.5188 27.4674 16.8139C26.6801 22.9178 21.9783 23.3041 21.1081 23.5676C20.7376 23.6801 17.316 24.4808 13.0053 24.2174C13.0053 24.2174 9.79507 27.8947 8.79149 28.8417C8.63246 29.0076 8.44675 29.0564 8.32822 29.032C8.15832 28.9926 8.10696 28.7929 8.11684 28.5191L8.14746 23.4945C1.86027 21.8442 2.23068 15.6175 2.29785 12.365C2.3749 9.11236 3.01794 6.45141 4.93225 4.64931C7.50936 2.43748 12.14 2.13932 14.2954 2.12432H14.2973ZM14.7715 5.37597C14.7197 5.37547 14.6684 5.3847 14.6204 5.40313C14.5725 5.42155 14.5288 5.44881 14.492 5.48333C14.4552 5.51784 14.4259 5.55893 14.4059 5.60423C14.3859 5.64953 14.3755 5.69814 14.3754 5.74726C14.3754 5.95729 14.5552 6.12325 14.7715 6.12325C15.7509 6.10557 16.7242 6.27211 17.6355 6.61327C18.5467 6.95443 19.3778 7.46345 20.0808 8.11099C21.516 9.43397 22.2154 11.2117 22.242 13.536C22.242 13.7414 22.4169 13.912 22.6381 13.912V13.897C22.7424 13.8973 22.8426 13.8584 22.9168 13.7888C22.991 13.7193 23.0332 13.6247 23.0342 13.5257C23.0822 12.4317 22.8953 11.3398 22.4848 10.3164C22.0744 9.29306 21.4491 8.35961 20.6468 7.5728C19.0831 6.12231 17.1016 5.37503 14.7715 5.37503V5.37597ZM9.56492 6.23576C9.28532 6.19698 9.00017 6.25026 8.75692 6.38671H8.73617C8.17142 6.70095 7.66267 7.0981 7.22883 7.56342C6.86829 7.9591 6.67271 8.35946 6.62135 8.74482C6.59072 8.97453 6.61147 9.20425 6.68358 9.42365L6.70926 9.43865C7.11523 10.5713 7.64567 11.6608 8.29365 12.6866C9.12834 14.1276 10.1556 15.4604 11.3498 16.6517L11.3854 16.7005L11.4417 16.7399L11.4773 16.7792L11.5187 16.813C12.7784 17.9499 14.1858 18.9296 15.7069 19.728C17.4454 20.6263 18.5003 21.051 19.1335 21.2273V21.2367C19.3192 21.2901 19.4881 21.3145 19.658 21.3145C20.1976 21.277 20.7085 21.069 21.109 20.7238C21.597 20.3119 22.0108 19.827 22.3339 19.2883V19.2789C22.6371 18.737 22.5344 18.2241 22.0968 17.8772C21.2205 17.1501 20.2728 16.5042 19.2668 15.9485C18.5932 15.6016 17.9087 15.8116 17.6311 16.1632L17.0394 16.8711C16.7362 17.2227 16.185 17.174 16.185 17.174L16.1692 17.1834C12.059 16.1867 10.9626 12.2365 10.9626 12.2365C10.9626 12.2365 10.9113 11.6992 11.2915 11.4255L12.0324 10.8591C12.387 10.5854 12.6339 9.93653 12.2536 9.29614C11.6722 8.33991 10.9933 7.44017 10.2267 6.60987C10.0591 6.41412 9.82401 6.28094 9.56294 6.23388L9.56492 6.23576ZM15.455 7.34965C14.9305 7.34965 14.9305 8.10161 15.46 8.10161C16.1122 8.11166 16.7559 8.2436 17.3544 8.48991C17.9528 8.73622 18.4943 9.09206 18.9478 9.5371C19.3615 9.97029 19.6794 10.4779 19.8827 11.0298C20.0859 11.5818 20.1704 12.1668 20.1311 12.7503C20.133 12.8491 20.1754 12.9432 20.2495 13.0126C20.3235 13.082 20.4232 13.1211 20.5272 13.1216L20.5431 13.1413C20.6479 13.1406 20.7482 13.1007 20.8223 13.0304C20.8964 12.96 20.9384 12.8648 20.9391 12.7653C20.9747 11.2754 20.4867 10.0256 19.5296 9.02423C18.5675 8.02285 17.2251 7.46122 15.5113 7.34965H15.455ZM16.104 9.37115C15.5637 9.35614 15.5429 10.1231 16.0783 10.1381C17.3802 10.2019 18.0124 10.8263 18.0953 12.1109C18.0972 12.2084 18.1391 12.3013 18.2122 12.3698C18.2853 12.4384 18.3838 12.477 18.4865 12.4775H18.5023C18.5551 12.4753 18.607 12.4632 18.6548 12.4418C18.7026 12.4205 18.7455 12.3903 18.7809 12.353C18.8163 12.3157 18.8435 12.2721 18.861 12.2248C18.8785 12.1774 18.8858 12.1272 18.8826 12.0771C18.7898 10.4025 17.8277 9.45928 16.1198 9.37208H16.104V9.37115Z" fill="white"/>
</svg>
